<svg width="94" height="94" viewBox="0 0 94 94" fill="none" xmlns="http://www.w3.org/2000/svg">
<path d="M47 0C21.0451 0 0 21.0451 0 47C0 72.9549 21.0451 94 47 94C72.9549 94 94 72.9549 94 47C94 21.0451 72.9549 0 47 0ZM67.3002 31.6516L45.206 62.2855C44.8972 62.7165 44.4901 63.0677 44.0185 63.31C43.5469 63.5523 43.0243 63.6786 42.4941 63.6786C41.9639 63.6786 41.4413 63.5523 40.9697 63.31C40.498 63.0677 40.0909 62.7165 39.7821 62.2855L26.6998 44.1569C26.3011 43.6009 26.6998 42.8246 27.3817 42.8246H32.302C33.3721 42.8246 34.3897 43.3386 35.0192 44.2199L42.4888 54.585L58.9808 31.7145C59.6103 30.8437 60.6174 30.3192 61.698 30.3192H66.6183C67.3002 30.3192 67.6989 31.0955 67.3002 31.6516V31.6516Z" fill="#52C41A"/>
</svg>
