<svg width="94" height="94" viewBox="0 0 94 94" fill="none" xmlns="http://www.w3.org/2000/svg">
<path d="M11.75 46.9078C11.75 47.6794 11.902 48.4433 12.1972 49.1561C12.4925 49.8689 12.9252 50.5165 13.4707 51.0621C14.0163 51.6076 14.6639 52.0404 15.3767 52.3356C16.0895 52.6309 16.8535 52.7828 17.625 52.7828C18.3965 52.7828 19.1605 52.6309 19.8733 52.3356C20.5861 52.0404 21.2337 51.6076 21.7793 51.0621C22.3248 50.5165 22.7575 49.8689 23.0528 49.1561C23.348 48.4433 23.5 47.6794 23.5 46.9078C23.5 46.1363 23.348 45.3724 23.0528 44.6596C22.7575 43.9468 22.3248 43.2991 21.7793 42.7536C21.2337 42.208 20.5861 41.7753 19.8733 41.48C19.1605 41.1848 18.3965 41.0328 17.625 41.0328C16.8535 41.0328 16.0895 41.1848 15.3767 41.48C14.6639 41.7753 14.0163 42.208 13.4707 42.7536C12.9252 43.2991 12.4925 43.9468 12.1972 44.6596C11.902 45.3724 11.75 46.1363 11.75 46.9078V46.9078ZM41.125 46.9078C41.125 48.466 41.744 49.9603 42.8457 51.0621C43.9475 52.1639 45.4419 52.7828 47 52.7828C48.5582 52.7828 50.0525 52.1639 51.1543 51.0621C52.256 49.9603 52.875 48.466 52.875 46.9078C52.875 45.3497 52.256 43.8554 51.1543 42.7536C50.0525 41.6518 48.5582 41.0328 47 41.0328C45.4419 41.0328 43.9475 41.6518 42.8457 42.7536C41.744 43.8554 41.125 45.3497 41.125 46.9078V46.9078ZM70.5 46.9078C70.5 48.466 71.119 49.9603 72.2208 51.0621C73.3225 52.1639 74.8169 52.7828 76.375 52.7828C77.9332 52.7828 79.4275 52.1639 80.5293 51.0621C81.631 49.9603 82.25 48.466 82.25 46.9078C82.25 45.3497 81.631 43.8554 80.5293 42.7536C79.4275 41.6518 77.9332 41.0328 76.375 41.0328C74.8169 41.0328 73.3225 41.6518 72.2208 42.7536C71.119 43.8554 70.5 45.3497 70.5 46.9078V46.9078Z" fill="black" fill-opacity="0.85"/>
</svg>
