<svg width="19" height="18" viewBox="0 0 19 18" fill="none" xmlns="http://www.w3.org/2000/svg">
<path d="M6.74615 4.83203H8.30529V11.9695C8.30529 12.0623 8.38124 12.1382 8.47407 12.1382H9.73995C9.83278 12.1382 9.90873 12.0623 9.90873 11.9695V4.83203H11.4721C11.6134 4.83203 11.6915 4.66957 11.605 4.55986L9.24204 1.56818C9.22625 1.548 9.20608 1.53169 9.18305 1.52047C9.16002 1.50925 9.13474 1.50342 9.10912 1.50342C9.08351 1.50342 9.05822 1.50925 9.03519 1.52047C9.01217 1.53169 8.99199 1.548 8.97621 1.56818L6.61324 4.55775C6.52674 4.66957 6.6048 4.83203 6.74615 4.83203V4.83203ZM16.831 11.3365H15.5651C15.4723 11.3365 15.3963 11.4125 15.3963 11.5053V14.7544H2.82194V11.5053C2.82194 11.4125 2.74599 11.3365 2.65316 11.3365H1.38728C1.29445 11.3365 1.2185 11.4125 1.2185 11.5053V15.6827C1.2185 16.0561 1.5202 16.3578 1.89363 16.3578H16.3246C16.698 16.3578 16.9997 16.0561 16.9997 15.6827V11.5053C16.9997 11.4125 16.9238 11.3365 16.831 11.3365Z" fill="#2288FF"/>
</svg>
